<svg id="visual" viewBox="0 0 900 600" width="900" height="600" xmlns="http://www.w3.org/2000/svg" xmlns:xlink="http://www.w3.org/1999/xlink" version="1.1"><rect width="900" height="600" fill="#931F1F"></rect><g><g transform="translate(24 152)"><path d="M83 -68.1C102.6 -41.5 110.3 -7.3 102.9 22.8C95.4 52.9 73 78.9 44.9 91.9C16.9 104.8 -16.8 104.8 -47.7 92.4C-78.6 80.1 -106.7 55.4 -114 25.5C-121.3 -4.5 -107.7 -39.7 -85.2 -67C-62.7 -94.2 -31.4 -113.3 0.2 -113.4C31.7 -113.6 63.3 -94.7 83 -68.1Z" stroke="#F7760E" fill="none" stroke-width="20"></path></g><g transform="translate(564 342)"><path d="M55.8 -42C70.4 -26.1 79.1 -3.1 75.3 18.8C71.6 40.6 55.5 61.2 34.1 72C12.7 82.8 -14.1 83.9 -36 73.7C-57.9 63.6 -74.9 42.3 -78.9 19.5C-83 -3.3 -74 -27.6 -58.7 -43.6C-43.3 -59.7 -21.7 -67.6 -0.6 -67.1C20.6 -66.7 41.1 -57.9 55.8 -42Z" stroke="#F7760E" fill="none" stroke-width="20"></path></g><g transform="translate(848 152)"><path d="M45.5 -35.3C56.9 -21.9 62.8 -3.1 59.1 13.5C55.3 30.1 41.9 44.6 25.5 52.1C9.2 59.6 -10 60.1 -27.2 53.1C-44.3 46.1 -59.5 31.6 -62.9 14.8C-66.4 -2 -58.3 -21 -45.8 -34.5C-33.4 -48.1 -16.7 -56.3 0.2 -56.4C17 -56.5 34 -48.6 45.5 -35.3Z" stroke="#F7760E" fill="none" stroke-width="20"></path></g><g transform="translate(41 446)"><path d="M68.8 -52.9C88.1 -30.7 102 -2.1 98.1 25.4C94.2 52.8 72.5 79.2 44.9 92.1C17.3 104.9 -16.3 104.2 -40.9 90.3C-65.5 76.4 -81.2 49.2 -88 20C-94.8 -9.3 -92.7 -40.7 -76.5 -62.2C-60.3 -83.7 -30.2 -95.3 -2.7 -93.1C24.8 -91 49.5 -75.1 68.8 -52.9Z" stroke="#F7760E" fill="none" stroke-width="20"></path></g><g transform="translate(583 14)"><path d="M54.4 -41.8C67 -27.7 71.1 -5.3 65.6 13.6C60.2 32.4 45.2 47.6 26.8 56.9C8.4 66.2 -13.3 69.6 -32 62.2C-50.6 54.9 -66.2 36.7 -70.5 16.4C-74.9 -3.9 -68.1 -26.4 -54.5 -40.7C-40.9 -55.1 -20.4 -61.3 0.3 -61.5C21 -61.7 41.9 -55.9 54.4 -41.8Z" stroke="#F7760E" fill="none" stroke-width="20"></path></g><g transform="translate(369 589)"><path d="M56.6 -42.1C70.5 -27.6 77.2 -4.2 72 15.5C66.7 35.2 49.5 51.2 30.3 58.9C11.1 66.6 -10.2 66.1 -28.3 57.8C-46.4 49.5 -61.2 33.4 -65.3 15C-69.4 -3.4 -62.8 -24.1 -50.1 -38.3C-37.4 -52.5 -18.7 -60.2 1.3 -61.2C21.3 -62.3 42.6 -56.6 56.6 -42.1Z" stroke="#F7760E" fill="none" stroke-width="20"></path></g><g transform="translate(856 562)"><path d="M55.9 -44.7C67.4 -30.1 68.2 -7.2 62.9 13.7C57.6 34.5 46.1 53.2 29.2 61.8C12.3 70.3 -10 68.7 -28.8 59.7C-47.6 50.7 -62.8 34.2 -67.1 15.4C-71.4 -3.5 -64.7 -24.9 -51.6 -39.8C-38.6 -54.7 -19.3 -63.2 1.4 -64.3C22.2 -65.4 44.4 -59.3 55.9 -44.7Z" stroke="#F7760E" fill="none" stroke-width="20"></path></g></g></svg>