<svg id="visual" viewBox="0 0 900 600" width="900" height="600" xmlns="http://www.w3.org/2000/svg" xmlns:xlink="http://www.w3.org/1999/xlink" version="1.1"><rect width="900" height="600" fill="#F7760E"></rect><g><g transform="translate(660 377)"><path d="M93.9 -72.9C116.4 -46.6 125.8 -7.9 116.1 23.3C106.5 54.6 77.8 78.3 46.9 90.6C16 102.9 -17.2 103.8 -46.6 91.6C-76 79.4 -101.6 54.2 -111.4 22.3C-121.2 -9.6 -115.1 -48.3 -93.9 -74.3C-72.7 -100.3 -36.3 -113.7 -0.3 -113.4C35.7 -113.2 71.4 -99.3 93.9 -72.9Z" stroke="#931F1F" fill="none" stroke-width="23"></path></g><g transform="translate(5 402)"><path d="M47 -38.2C59.1 -22.4 65.8 -2.9 62 14.3C58.2 31.5 43.9 46.6 26.9 54C10 61.4 -9.7 61.2 -26.6 53.7C-43.4 46.1 -57.4 31.2 -61.1 14.2C-64.8 -2.9 -58.2 -22 -46.3 -37.8C-34.4 -53.6 -17.2 -66 0.1 -66.1C17.5 -66.2 35 -54 47 -38.2Z" stroke="#931F1F" fill="none" stroke-width="23"></path></g><g transform="translate(320 556)"><path d="M58.9 -48.1C72.8 -29.5 78 -5.3 73.7 18.1C69.4 41.4 55.5 63.9 34.1 76.2C12.8 88.5 -15.9 90.7 -39.5 80.1C-63 69.5 -81.3 46.1 -86.7 20.4C-92.1 -5.3 -84.5 -33.3 -67.9 -52.5C-51.3 -71.6 -25.7 -81.9 -1.6 -80.7C22.5 -79.4 45 -66.6 58.9 -48.1Z" stroke="#931F1F" fill="none" stroke-width="23"></path></g><g transform="translate(594 51)"><path d="M50.3 -40.8C60.4 -27.4 60.6 -6.8 55.3 11.3C50.1 29.3 39.6 44.8 23.8 54.2C8.1 63.6 -12.9 66.9 -28.2 59.3C-43.4 51.6 -53 32.9 -56.3 14.1C-59.6 -4.8 -56.7 -23.8 -46.3 -37.2C-35.8 -50.6 -17.9 -58.3 1.1 -59.2C20.1 -60 40.2 -54.1 50.3 -40.8Z" stroke="#931F1F" fill="none" stroke-width="23"></path></g><g transform="translate(301 238)"><path d="M51.2 -39.5C63.9 -24.9 70 -3.8 65.5 14.5C61 32.8 45.8 48.2 28.1 55.8C10.3 63.4 -10 63.1 -28.9 55.7C-47.9 48.2 -65.5 33.6 -71.5 14.3C-77.6 -5.1 -72.2 -29.2 -58.3 -44C-44.5 -58.8 -22.2 -64.4 -1.5 -63.2C19.2 -62 38.5 -54 51.2 -39.5Z" stroke="#931F1F" fill="none" stroke-width="23"></path></g><g transform="translate(80 23)"><path d="M51.8 -41.3C65.5 -24.2 73.7 -2.7 69.6 16.1C65.4 34.9 48.9 51 29.7 59.3C10.6 67.6 -11.2 68 -28.6 59.5C-46.1 51.1 -59.2 33.8 -63.5 14.6C-67.8 -4.6 -63.3 -25.8 -51.3 -42.5C-39.2 -59.3 -19.6 -71.7 -0.3 -71.5C19.1 -71.3 38.1 -58.4 51.8 -41.3Z" stroke="#931F1F" fill="none" stroke-width="23"></path></g><g transform="translate(874 146)"><path d="M60.7 -47.5C76.2 -28.9 84.6 -3.8 80.5 20.1C76.4 44 59.8 66.7 37.4 77.4C15 88.1 -13 86.7 -36.7 75.6C-60.4 64.4 -79.7 43.5 -84.5 20C-89.3 -3.5 -79.6 -29.6 -63.1 -48.4C-46.6 -67.1 -23.3 -78.6 -0.4 -78.3C22.6 -78 45.2 -66 60.7 -47.5Z" stroke="#931F1F" fill="none" stroke-width="23"></path></g><g transform="translate(896 564)"><path d="M66.7 -56.9C82.7 -33 89.6 -5.5 83.9 19.1C78.2 43.7 60.1 65.4 36.5 77.5C12.8 89.5 -16.3 92 -38.4 80.9C-60.5 69.8 -75.5 45.3 -83.1 17.5C-90.6 -10.4 -90.7 -41.4 -75.6 -65C-60.5 -88.6 -30.3 -104.8 -2.5 -102.9C25.3 -100.9 50.6 -80.7 66.7 -56.9Z" stroke="#931F1F" fill="none" stroke-width="23"></path></g></g></svg>