<?xml version="1.0" encoding="UTF-8" standalone="no"?>
<svg
   xmlns:dc="http://purl.org/dc/elements/1.1/"
   xmlns:cc="http://creativecommons.org/ns#"
   xmlns:rdf="http://www.w3.org/1999/02/22-rdf-syntax-ns#"
   xmlns:svg="http://www.w3.org/2000/svg"
   xmlns="http://www.w3.org/2000/svg"
   xmlns:sodipodi="http://sodipodi.sourceforge.net/DTD/sodipodi-0.dtd"
   xmlns:inkscape="http://www.inkscape.org/namespaces/inkscape"
   version="1.1"
   x="0px"
   y="0px"
   viewBox="0 0 100 125"
   enable-background="new 0 0 100 100"
   xml:space="preserve"
   id="svg2"
   inkscape:version="0.91 r13725"
   sodipodi:docname="Q11707_noun_11637_ccFedericoPanzano_restaurant.svg"><metadata
     id="metadata126"><rdf:RDF><cc:Work
         rdf:about=""><dc:format>image/svg+xml</dc:format><dc:type
           rdf:resource="http://purl.org/dc/dcmitype/StillImage" /><dc:title></dc:title></cc:Work></rdf:RDF></metadata><defs
     id="defs124" /><sodipodi:namedview
     pagecolor="#ffffff"
     bordercolor="#666666"
     borderopacity="1"
     objecttolerance="10"
     gridtolerance="10"
     guidetolerance="10"
     inkscape:pageopacity="0"
     inkscape:pageshadow="2"
     inkscape:window-width="1680"
     inkscape:window-height="988"
     id="namedview122"
     showgrid="false"
     inkscape:zoom="3.776"
     inkscape:cx="0.72260668"
     inkscape:cy="25.535938"
     inkscape:window-x="-8"
     inkscape:window-y="-8"
     inkscape:window-maximized="1"
     inkscape:current-layer="svg2" /><g
     id="g114"
     transform="translate(0,14)"><path
       d="M 49.999,0 C 22.385,0 0,22.386 0,50 0,77.615 22.385,100 49.999,100 77.614,100 100,77.615 100,50 100,22.386 77.614,0 49.999,0 Z M 68,91.252 67.999,69.121 l 0,-51.62 c -6.628,0 -12,5.372 -12,11.999 l 0.014,39.621 -0.014,5.38 c 1.657,0 3,1.343 3,3 0,0 0,11.188 0,16.599 -2.908,0.59 -5.918,0.9 -9,0.9 C 48.991,95 47.991,94.964 47,94.898 L 46.999,56.482 c 3.314,0 6,-2.687 6,-6 L 53,19.002 c 0,-0.828 -0.672,-1.5 -1.501,-1.5 -0.828,0 -1.5,0.672 -1.5,1.5 l 0,27 c 0,0.828 -0.671,1.5 -1.5,1.5 -0.828,0 -1.5,-0.672 -1.5,-1.5 l 0,-27 c 0,-0.828 -0.671,-1.5 -1.5,-1.5 -0.828,0 -1.499,0.672 -1.499,1.5 l 0,27 c 0,0.828 -0.672,1.5 -1.501,1.5 -0.828,0 -1.5,-0.672 -1.5,-1.5 l 0,-27 c 0,-0.828 -0.671,-1.5 -1.5,-1.5 -0.828,0 -1.5,0.672 -1.5,1.5 l 0,27 c 0,0.828 -0.671,1.5 -1.5,1.5 -0.828,0 -1.5,-0.672 -1.5,-1.5 l 0,-27 c 0,-0.828 -0.671,-1.5 -1.499,-1.5 -0.829,0 -1.501,0.672 -1.501,1.5 l 0,31.48 c 0,3.313 2.687,6 6,6 l 0,36.898 C 18.973,88.128 4.999,70.697 4.999,50 4.999,25.147 25.146,5 49.999,5 74.853,5 95,25.147 95,50 95,68.453 83.892,84.308 68,91.252 Z"
       id="path116"
       inkscape:connector-curvature="0"
       style="clip-rule:evenodd;fill-rule:evenodd" /></g></svg>